<!DOCTYPE svg PUBLIC "-//W3C//DTD SVG 1.1//EN" "http://www.w3.org/Graphics/SVG/1.1/DTD/svg11.dtd">
<!-- Uploaded to: SVG Repo, www.svgrepo.com, Transformed by: SVG Repo Mixer Tools -->
<svg fill="#e9204f" height="64px" width="64px" version="1.1" id="Layer_1" xmlns="http://www.w3.org/2000/svg" xmlns:xlink="http://www.w3.org/1999/xlink" viewBox="0 0 491.52 491.52" xml:space="preserve">
<g id="SVGRepo_bgCarrier" stroke-width="0"/>
<g id="SVGRepo_tracerCarrier" stroke-linecap="round" stroke-linejoin="round"/>
<g id="SVGRepo_iconCarrier"> <g> <g> <path d="M325.41,169.155c-43.92-43.92-115.38-43.91-159.3,0c-43.91,43.92-43.91,115.385,0,159.3 c21.96,21.96,50.805,32.94,79.65,32.94c28.845,0,57.69-10.98,79.65-32.94C369.32,284.54,369.32,213.075,325.41,169.155z M307.315,317.241c-34.896,31.404-88.066,31.432-122.995,0.104v-23.8c0-13.37,9.76-26.065,23.28-30.465l38.16,38.16l38.16-38.155 c13.605,4.43,23.395,17.05,23.395,30.295V317.241z M289,243.215l-10.94-3.24l-32.3,32.305l-32.3-32.305l-10.975,3.25 c-22.021,6.605-37.475,26.225-38.457,48.147c-18.052-34.728-12.541-78.625,16.563-107.737c17.97-17.965,41.57-26.945,65.17-26.945 c23.6,0,47.2,8.98,65.17,26.945c29.04,29.048,34.579,72.812,16.67,107.504C326.58,269.357,311.092,249.841,289,243.215z"/> </g> </g> <g> <g> <path d="M245.76,170.45c-21.19,0-38.43,17.235-38.43,38.425s17.24,38.425,38.43,38.425c21.19,0,38.43-17.235,38.43-38.425 S266.95,170.45,245.76,170.45z M245.76,226.82c-9.9,0-17.95-8.05-17.95-17.945s8.05-17.945,17.95-17.945 c9.9,0,17.95,8.05,17.95,17.945S255.66,226.82,245.76,226.82z"/> </g> </g> <g> <g> <path d="M301.58,421.48c-2.522,0.799-5.12,1.34-7.684,2.033c-6.996-19.954-25.823-34.393-48.136-34.393 c-22.297,0-41.114,14.417-48.122,34.35c-3.073-0.829-6.2-1.495-9.198-2.475l-6.37,19.46c4.193,1.373,8.544,2.358,12.854,3.462 c1.884,26.527,23.838,47.603,50.836,47.603c26.984,0,48.927-21.054,50.832-47.561c3.741-0.958,7.513-1.796,11.178-2.959 L301.58,421.48z M245.76,471.04c-16.94,0-30.72-13.78-30.72-30.72s13.78-30.72,30.72-30.72s30.72,13.78,30.72,30.72 S262.7,471.04,245.76,471.04z"/> </g> </g> <g> <g> <path d="M102.4,245.76c0-22.297-14.418-41.114-34.35-48.122c0.829-3.073,1.495-6.2,2.475-9.198l-19.46-6.37 c-1.373,4.193-2.358,8.544-3.462,12.854C21.076,196.808,0,218.762,0,245.76c0,26.984,21.054,48.928,47.563,50.833 c0.956,3.746,1.79,7.52,2.958,11.192l19.52-6.2c-0.801-2.523-1.34-5.123-2.034-7.689C87.961,286.899,102.4,268.073,102.4,245.76z M51.2,276.48c-16.94,0-30.72-13.78-30.72-30.72s13.78-30.72,30.72-30.72s30.72,13.78,30.72,30.72S68.14,276.48,51.2,276.48z"/> </g> </g> <g> <g> <path d="M394.495,354.65c-3.8,5.185-7.93,10.24-12.275,15.025l15.16,13.77c4.825-5.315,9.41-10.925,13.635-16.685L394.495,354.65z "/> </g> </g> <g> <g> <path d="M414,321.185c-2.625,5.845-5.605,11.65-8.87,17.255l17.7,10.3c3.625-6.225,6.94-12.675,9.85-19.165L414,321.185z"/> </g> </g> <g> <g> <path d="M337.01,405.945c-5.58,3.185-11.405,6.115-17.32,8.715l8.24,18.75c6.565-2.885,13.035-6.14,19.23-9.675L337.01,405.945z"/> </g> </g> <g> <g> <path d="M368.44,383.32c-4.805,4.29-9.89,8.375-15.12,12.14l11.96,16.62c5.815-4.18,11.465-8.72,16.8-13.48L368.44,383.32z"/> </g> </g> <g> <g> <path d="M443.96,194.928c-0.958-3.744-1.797-7.518-2.96-11.188l-19.52,6.19c0.799,2.524,1.341,5.127,2.034,7.694 c-19.955,6.996-34.394,25.823-34.394,48.136c0,22.298,14.419,41.116,34.353,48.123c-0.831,3.075-1.497,6.205-2.478,9.207 l19.46,6.37c1.374-4.194,2.361-8.55,3.466-12.864c26.525-1.886,47.599-23.839,47.599-50.836 C491.52,218.776,470.467,196.834,443.96,194.928z M440.32,276.48c-16.94,0-30.72-13.78-30.72-30.72s13.78-30.72,30.72-30.72 s30.72,13.78,30.72,30.72S457.26,276.48,440.32,276.48z"/> </g> </g> <g> <g> <path d="M366.75,80.5l-12.11,16.52c5.185,3.8,10.24,7.93,15.025,12.275l13.77-15.16C378.12,89.31,372.51,84.725,366.75,80.5z"/> </g> </g> <g> <g> <path d="M329.56,58.835l-8.39,18.68c5.88,2.64,11.68,5.62,17.25,8.865l10.31-17.69C342.54,65.08,336.09,61.765,329.56,58.835z"/> </g> </g> <g> <g> <path d="M398.595,109.43l-15.28,13.64c4.29,4.805,8.375,9.89,12.14,15.12l16.62-11.96 C407.895,120.415,403.355,114.765,398.595,109.43z"/> </g> </g> <g> <g> <path d="M423.725,144.345l-17.79,10.15c3.185,5.58,6.115,11.405,8.715,17.32l18.75-8.24 C430.515,157.01,427.26,150.54,423.725,144.345z"/> </g> </g> <g> <g> <path d="M68.69,142.79c-3.61,6.19-6.925,12.64-9.855,19.17l18.68,8.39c2.64-5.88,5.62-11.68,8.865-17.25L68.69,142.79z"/> </g> </g> <g> <g> <path d="M126.225,79.445c-5.815,4.18-11.465,8.72-16.8,13.48l13.64,15.28c4.805-4.29,9.89-8.375,15.12-12.14L126.225,79.445z"/> </g> </g> <g> <g> <path d="M94.135,108.085C89.31,113.4,84.725,119.01,80.5,124.77l16.52,12.11c3.8-5.185,7.93-10.24,12.275-15.025L94.135,108.085z"/> </g> </g> <g> <g> <path d="M296.596,47.603C294.712,21.076,272.758,0,245.76,0c-26.984,0-48.928,21.054-50.833,47.563 c-3.746,0.956-7.52,1.79-11.193,2.958l6.2,19.52c2.523-0.801,5.123-1.34,7.689-2.034c6.996,19.955,25.823,34.394,48.136,34.394 c22.297,0,41.114-14.418,48.122-34.35c3.073,0.829,6.2,1.495,9.198,2.475l6.37-19.46 C305.257,49.692,300.906,48.707,296.596,47.603z M245.76,81.92c-16.94,0-30.72-13.78-30.72-30.72s13.78-30.72,30.72-30.72 s30.72,13.78,30.72,30.72S262.7,81.92,245.76,81.92z"/> </g> </g> <g> <g> <path d="M163.58,58.12c-6.565,2.885-13.035,6.14-19.23,9.675l10.15,17.79c5.58-3.185,11.405-6.115,17.32-8.715L163.58,58.12z"/> </g> </g> <g> <g> <path d="M76.87,319.7l-18.75,8.24c2.885,6.565,6.14,13.035,9.675,19.23l17.79-10.15C82.4,331.44,79.47,325.615,76.87,319.7z"/> </g> </g> <g> <g> <path d="M121.855,382.225l-13.77,15.16c5.315,4.825,10.925,9.41,16.685,13.635l12.11-16.52 C131.695,390.7,126.64,386.57,121.855,382.225z"/> </g> </g> <g> <g> <path d="M96.065,353.335l-16.62,11.96c4.18,5.815,8.72,11.465,13.48,16.8l15.28-13.64 C103.915,363.65,99.83,358.565,96.065,353.335z"/> </g> </g> <g> <g> <path d="M153.1,405.14l-10.31,17.69c6.19,3.61,12.64,6.925,19.17,9.855l8.39-18.68C164.47,411.365,158.67,408.385,153.1,405.14z"/> </g> </g> </g>
</svg>