<!DOCTYPE svg PUBLIC "-//W3C//DTD SVG 1.1//EN" "http://www.w3.org/Graphics/SVG/1.1/DTD/svg11.dtd">
<!-- Uploaded to: SVG Repo, www.svgrepo.com, Transformed by: SVG Repo Mixer Tools -->
<svg fill="#000000" height="64px" width="64px" version="1.1" id="Layer_1" xmlns="http://www.w3.org/2000/svg" xmlns:xlink="http://www.w3.org/1999/xlink" viewBox="0 0 299.804 299.804" xml:space="preserve">
<g id="SVGRepo_bgCarrier" stroke-width="0"/>
<g id="SVGRepo_tracerCarrier" stroke-linecap="round" stroke-linejoin="round"/>
<g id="SVGRepo_iconCarrier"> <g> <g> <g> <path d="M274.408,18.908H25.384C11.388,18.908,0,30.3,0,44.296v157.08c0,13.996,11.388,25.388,25.384,25.388h79.22v19.732 c0,6.368-7.256,11.744-16.168,12.36H83.32c-6.588,0-11.948,4.944-11.948,11.024c0,6.076,5.364,11.016,11.948,11.016h133.16 c6.588,0,11.948-4.94,11.948-11.016s-5.36-11.024-11.948-11.024h-5.116c-8.912-0.616-16.168-5.992-16.168-12.36v-19.732h79.22 c14,0,25.388-11.388,25.388-25.388V44.296C299.796,30.296,288.408,18.908,274.408,18.908z M6.3,44.296 c0-10.52,8.564-19.08,19.084-19.08h249.028c10.52,0,19.084,8.56,19.084,19.08v129.928h-0.004H6.3V44.296z M197.972,258.856 h-31.024c-1.216,0-2.204,0.984-2.204,2.204c0,1.22,0.988,2.208,2.204,2.208h44.496c0.532,0.028,1.04,0.12,1.584,0.12 c0.216,0,0.408-0.064,0.604-0.12h2.848c4.156,0,7.536,2.964,7.536,6.612c0,3.644-3.38,6.604-7.536,6.604H83.32 c-4.156,0-7.536-2.96-7.536-6.604c0-3.644,3.38-6.612,7.536-6.612h2.848c0.196,0.056,0.388,0.12,0.604,0.12 c0.544,0,1.052-0.092,1.584-0.12h37.996c1.22,0,2.208-0.984,2.208-2.208c0-1.22-0.988-2.204-2.208-2.204h-24.524 c4.392-3.088,7.192-7.464,7.192-12.36v-19.732h81.764v19.732C190.78,251.388,193.576,255.764,197.972,258.856z M293.496,201.376 c-0.004,10.52-8.564,19.08-19.088,19.08H25.384c-10.52,0-19.084-8.56-19.084-19.08v-22.74h287.196V201.376z"/> <path d="M150.032,258.852h-13.256c-1.22,0-2.208,0.984-2.208,2.204c0,1.22,0.988,2.208,2.208,2.208h13.256 c1.216,0,2.204-0.984,2.204-2.208C152.236,259.84,151.248,258.852,150.032,258.852z"/> <path d="M149.896,208.472c6,0,10.88-4.88,10.88-10.88c0-5.996-4.88-10.88-10.88-10.88s-10.88,4.884-10.88,10.88 C139.016,203.592,143.896,208.472,149.896,208.472z M149.896,191.124c3.568,0,6.468,2.9,6.468,6.468 c0,3.564-2.9,6.468-6.468,6.468c-3.564,0-6.468-2.9-6.468-6.468C143.428,194.028,146.328,191.124,149.896,191.124z"/> <path d="M145.388,35.076h9.02c2.016,0,3.66-1.64,3.66-3.66c0-2.016-1.64-3.656-3.66-3.656h-9.02c-2.016,0-3.656,1.64-3.656,3.656 C141.728,33.432,143.372,35.076,145.388,35.076z M145.388,30.912h9.02c0.272,0,0.504,0.228,0.504,0.504 c0,0.28-0.232,0.508-0.504,0.508h-9.02c-0.272,0-0.504-0.228-0.504-0.508C144.884,31.14,145.112,30.912,145.388,30.912z"/> <path d="M80.808,161.04h-59.72V85.184c0-1.22-0.992-2.204-2.208-2.204s-2.204,0.984-2.204,2.204v78.06l2.204,2.208h61.924 c1.216,0,2.204-0.984,2.204-2.208C83.012,162.024,82.024,161.04,80.808,161.04z"/> <path d="M280.112,92.872c-1.216,0-2.204,0.984-2.204,2.204v65.96H105.264c-1.22,0-2.208,0.988-2.208,2.208 c0,1.22,0.988,2.204,2.208,2.204h174.848l2.204-2.204V95.076C282.32,93.856,281.332,92.872,280.112,92.872z"/> <path d="M37.616,41.648c-1.216,0-2.204,0.984-2.204,2.204c0,1.22,0.988,2.208,2.204,2.208h240.292v18.312 c0,1.22,0.988,2.208,2.208,2.208c1.216,0,2.204-0.984,2.204-2.208v-20.52l-2.204-2.204H37.616z"/> <path d="M224.736,133.736c0.3,0,0.608-0.06,0.9-0.196l37.168-16.68c1.112-0.496,1.608-1.804,1.108-2.916 c-0.496-1.108-1.808-1.62-2.916-1.108l-37.168,16.68c-1.112,0.496-1.608,1.804-1.108,2.916 C223.088,133.252,223.896,133.736,224.736,133.736z"/> <path d="M195.812,146.716c0.3,0,0.608-0.06,0.9-0.196l15.76-7.072c1.112-0.492,1.608-1.8,1.108-2.912 c-0.5-1.108-1.8-1.62-2.916-1.108l-15.76,7.068c-1.112,0.496-1.608,1.804-1.108,2.916 C194.164,146.232,194.972,146.716,195.812,146.716z"/> <path d="M215.128,148.004c0.364,0.824,1.172,1.316,2.02,1.316c0.296,0,0.596-0.064,0.884-0.188l43.716-19.252 c1.116-0.492,1.62-1.796,1.128-2.908s-1.788-1.62-2.908-1.128l-43.712,19.252C215.144,145.584,214.636,146.888,215.128,148.004z"/> </g> </g> </g> </g>
</svg>